<mxfile host="65bd71144e" modified="2020-11-10T02:39:28.321Z" agent="5.0 (Windows NT 10.0; Win64; x64) AppleWebKit/537.36 (KHTML, like Gecko) Code/1.50.1 Chrome/83.0.4103.122 Electron/9.2.1 Safari/537.36" version="13.6.5" etag="loGAw3rDzne_8G78Q_dN">
    <diagram id="O5_lj-iOAn1Sq2-WU8oz" name="Page-1">
        <mxGraphModel dx="822" dy="1483" grid="1" gridSize="10" guides="1" tooltips="1" connect="1" arrows="1" fold="1" page="1" pageScale="1" pageWidth="850" pageHeight="1100" background="none" math="0" shadow="0">
            <root>
                <mxCell id="0"/>
                <mxCell id="1" parent="0"/>
                <mxCell id="28" value="" style="whiteSpace=wrap;html=1;aspect=fixed;fillColor=#2a2a2a;" vertex="1" parent="1">
                    <mxGeometry x="10" y="-5" width="470" height="470" as="geometry"/>
                </mxCell>
                <mxCell id="2" value="&lt;div style=&quot;background-color: rgb(40 , 42 , 54) ; font-family: &amp;#34;consolas&amp;#34; , &amp;#34;courier new&amp;#34; , monospace ; font-size: 14px ; line-height: 19px&quot;&gt;&lt;font color=&quot;#f6f6f4&quot;&gt;let&amp;nbsp;input&amp;nbsp;=&amp;nbsp;[&lt;/font&gt;&lt;span style=&quot;color: rgb(242 , 134 , 196)&quot;&gt;8,4,23,42,16,&lt;/span&gt;&lt;font color=&quot;#00cc00&quot;&gt;15&lt;/font&gt;&lt;font color=&quot;#f6f6f4&quot;&gt;]&lt;/font&gt;&lt;/div&gt;" style="text;html=1;strokeColor=none;align=center;verticalAlign=middle;whiteSpace=wrap;rounded=0;fillColor=#2a2a2a;" vertex="1" parent="1">
                    <mxGeometry x="130" y="60" width="240" height="20" as="geometry"/>
                </mxCell>
                <mxCell id="7" value="" style="endArrow=classic;html=1;" edge="1" parent="1" target="8">
                    <mxGeometry width="50" height="50" relative="1" as="geometry">
                        <mxPoint x="340" y="80" as="sourcePoint"/>
                        <mxPoint x="340" y="120" as="targetPoint"/>
                        <Array as="points">
                            <mxPoint x="340" y="120"/>
                        </Array>
                    </mxGeometry>
                </mxCell>
                <mxCell id="8" value="Pivot" style="text;html=1;strokeColor=none;fillColor=none;align=center;verticalAlign=middle;whiteSpace=wrap;rounded=0;" vertex="1" parent="1">
                    <mxGeometry x="320" y="120" width="40" height="20" as="geometry"/>
                </mxCell>
                <mxCell id="15" style="edgeStyle=orthogonalEdgeStyle;rounded=0;orthogonalLoop=1;jettySize=auto;html=1;" edge="1" parent="1" source="9">
                    <mxGeometry relative="1" as="geometry">
                        <mxPoint x="250" y="210" as="targetPoint"/>
                    </mxGeometry>
                </mxCell>
                <mxCell id="9" value="&lt;div style=&quot;background-color: rgb(40 , 42 , 54) ; font-family: &amp;#34;consolas&amp;#34; , &amp;#34;courier new&amp;#34; , monospace ; font-size: 14px ; line-height: 19px&quot;&gt;&lt;font color=&quot;#f6f6f4&quot;&gt;[&lt;/font&gt;&lt;span style=&quot;color: rgb(242 , 134 , 196)&quot;&gt;8,4,23,42,16,&lt;/span&gt;&lt;font color=&quot;#00cc00&quot;&gt;15&lt;/font&gt;&lt;font color=&quot;#f6f6f4&quot;&gt;]&lt;/font&gt;&lt;/div&gt;" style="text;html=1;strokeColor=none;align=center;verticalAlign=middle;whiteSpace=wrap;rounded=0;fillColor=#2a2a2a;" vertex="1" parent="1">
                    <mxGeometry x="175" y="150" width="150" height="20" as="geometry"/>
                </mxCell>
                <mxCell id="10" value="" style="endArrow=classic;html=1;" edge="1" parent="1">
                    <mxGeometry width="50" height="50" relative="1" as="geometry">
                        <mxPoint x="200" y="180" as="sourcePoint"/>
                        <mxPoint x="170" y="210" as="targetPoint"/>
                    </mxGeometry>
                </mxCell>
                <mxCell id="11" value="" style="endArrow=classic;html=1;" edge="1" parent="1">
                    <mxGeometry width="50" height="50" relative="1" as="geometry">
                        <mxPoint x="300" y="180" as="sourcePoint"/>
                        <mxPoint x="330" y="210" as="targetPoint"/>
                    </mxGeometry>
                </mxCell>
                <mxCell id="12" value="&lt;div style=&quot;background-color: rgb(40 , 42 , 54) ; font-family: &amp;#34;consolas&amp;#34; , &amp;#34;courier new&amp;#34; , monospace ; font-size: 14px ; line-height: 19px&quot;&gt;&lt;font color=&quot;#f6f6f4&quot;&gt;[&lt;/font&gt;&lt;span style=&quot;color: rgb(242 , 134 , 196)&quot;&gt;8,&lt;/span&gt;&lt;font color=&quot;#00cc00&quot;&gt;4&lt;/font&gt;&lt;font color=&quot;#f6f6f4&quot;&gt;]&lt;/font&gt;&lt;/div&gt;" style="text;html=1;strokeColor=none;align=center;verticalAlign=middle;whiteSpace=wrap;rounded=0;fillColor=#2a2a2a;" vertex="1" parent="1">
                    <mxGeometry x="110" y="220" width="70" height="20" as="geometry"/>
                </mxCell>
                <mxCell id="13" value="&lt;div style=&quot;background-color: rgb(40 , 42 , 54) ; font-family: &amp;#34;consolas&amp;#34; , &amp;#34;courier new&amp;#34; , monospace ; font-size: 14px ; line-height: 19px&quot;&gt;&lt;font color=&quot;#f6f6f4&quot;&gt;[&lt;/font&gt;&lt;span style=&quot;color: rgb(242 , 134 , 196)&quot;&gt;23,42,&lt;/span&gt;&lt;font color=&quot;#00ff00&quot;&gt;16&lt;/font&gt;&lt;font color=&quot;#f6f6f4&quot;&gt;]&lt;/font&gt;&lt;/div&gt;" style="text;html=1;strokeColor=none;align=center;verticalAlign=middle;whiteSpace=wrap;rounded=0;fillColor=#2a2a2a;" vertex="1" parent="1">
                    <mxGeometry x="310" y="220" width="90" height="20" as="geometry"/>
                </mxCell>
                <mxCell id="22" style="edgeStyle=orthogonalEdgeStyle;rounded=0;orthogonalLoop=1;jettySize=auto;html=1;" edge="1" parent="1" source="14" target="25">
                    <mxGeometry relative="1" as="geometry">
                        <mxPoint x="250" y="290" as="targetPoint"/>
                    </mxGeometry>
                </mxCell>
                <mxCell id="14" value="&lt;div style=&quot;background-color: rgb(40 , 42 , 54) ; font-family: &amp;#34;consolas&amp;#34; , &amp;#34;courier new&amp;#34; , monospace ; font-size: 14px ; line-height: 19px&quot;&gt;&lt;font color=&quot;#f6f6f4&quot;&gt;[&lt;/font&gt;&lt;font color=&quot;#00cc00&quot;&gt;15&lt;/font&gt;&lt;font color=&quot;#f6f6f4&quot;&gt;]&lt;/font&gt;&lt;/div&gt;" style="text;html=1;strokeColor=none;align=center;verticalAlign=middle;whiteSpace=wrap;rounded=0;fillColor=#2a2a2a;" vertex="1" parent="1">
                    <mxGeometry x="215" y="220" width="70" height="20" as="geometry"/>
                </mxCell>
                <mxCell id="16" value="" style="endArrow=classic;html=1;" edge="1" parent="1">
                    <mxGeometry width="50" height="50" relative="1" as="geometry">
                        <mxPoint x="390" y="250" as="sourcePoint"/>
                        <mxPoint x="410" y="290" as="targetPoint"/>
                    </mxGeometry>
                </mxCell>
                <mxCell id="17" value="" style="endArrow=classic;html=1;" edge="1" parent="1">
                    <mxGeometry width="50" height="50" relative="1" as="geometry">
                        <mxPoint x="330" y="250" as="sourcePoint"/>
                        <mxPoint x="310" y="280" as="targetPoint"/>
                        <Array as="points">
                            <mxPoint x="320" y="270"/>
                        </Array>
                    </mxGeometry>
                </mxCell>
                <mxCell id="18" value="" style="endArrow=classic;html=1;" edge="1" parent="1">
                    <mxGeometry width="50" height="50" relative="1" as="geometry">
                        <mxPoint x="110" y="250" as="sourcePoint"/>
                        <mxPoint x="80" y="280" as="targetPoint"/>
                    </mxGeometry>
                </mxCell>
                <mxCell id="20" value="" style="endArrow=classic;html=1;" edge="1" parent="1" target="26">
                    <mxGeometry width="50" height="50" relative="1" as="geometry">
                        <mxPoint x="150" y="250" as="sourcePoint"/>
                        <mxPoint x="170" y="290" as="targetPoint"/>
                    </mxGeometry>
                </mxCell>
                <mxCell id="21" value="&lt;div style=&quot;background-color: rgb(40 , 42 , 54) ; font-family: &amp;#34;consolas&amp;#34; , &amp;#34;courier new&amp;#34; , monospace ; font-size: 14px ; line-height: 19px&quot;&gt;&lt;font color=&quot;#f6f6f4&quot;&gt;[&lt;/font&gt;&lt;font color=&quot;#00ff00&quot;&gt;4&lt;/font&gt;&lt;font color=&quot;#f6f6f4&quot;&gt;]&lt;/font&gt;&lt;/div&gt;" style="text;html=1;strokeColor=none;align=center;verticalAlign=middle;whiteSpace=wrap;rounded=0;fillColor=#2a2a2a;" vertex="1" parent="1">
                    <mxGeometry x="40" y="290" width="70" height="20" as="geometry"/>
                </mxCell>
                <mxCell id="23" value="&lt;div style=&quot;background-color: rgb(40 , 42 , 54) ; font-family: &amp;#34;consolas&amp;#34; , &amp;#34;courier new&amp;#34; , monospace ; font-size: 14px ; line-height: 19px&quot;&gt;&lt;font color=&quot;#f6f6f4&quot;&gt;[&lt;/font&gt;&lt;font color=&quot;#00cc00&quot;&gt;16&lt;/font&gt;&lt;font color=&quot;#f6f6f4&quot;&gt;]&lt;/font&gt;&lt;/div&gt;" style="text;html=1;strokeColor=none;align=center;verticalAlign=middle;whiteSpace=wrap;rounded=0;fillColor=#2a2a2a;" vertex="1" parent="1">
                    <mxGeometry x="260" y="290" width="90" height="20" as="geometry"/>
                </mxCell>
                <mxCell id="24" value="&lt;div style=&quot;background-color: rgb(40 , 42 , 54) ; font-family: &amp;#34;consolas&amp;#34; , &amp;#34;courier new&amp;#34; , monospace ; font-size: 14px ; line-height: 19px&quot;&gt;&lt;font color=&quot;#f6f6f4&quot;&gt;[&lt;/font&gt;&lt;span style=&quot;color: rgb(242 , 134 , 196)&quot;&gt;23,42&lt;/span&gt;&lt;font color=&quot;#f6f6f4&quot;&gt;]&lt;/font&gt;&lt;/div&gt;" style="text;html=1;strokeColor=none;align=center;verticalAlign=middle;whiteSpace=wrap;rounded=0;fillColor=#2a2a2a;" vertex="1" parent="1">
                    <mxGeometry x="380" y="300" width="90" height="20" as="geometry"/>
                </mxCell>
                <mxCell id="25" value="[&lt;font color=&quot;#00cc00&quot;&gt;15&lt;/font&gt;]" style="text;html=1;strokeColor=none;fillColor=none;align=center;verticalAlign=middle;whiteSpace=wrap;rounded=0;" vertex="1" parent="1">
                    <mxGeometry x="230" y="280" width="40" height="20" as="geometry"/>
                </mxCell>
                <mxCell id="26" value="&lt;font style=&quot;font-size: 14px&quot;&gt;[&lt;font style=&quot;font-size: 14px&quot; color=&quot;#ff66b3&quot;&gt;8&lt;/font&gt;]&lt;/font&gt;" style="text;html=1;strokeColor=none;fillColor=none;align=center;verticalAlign=middle;whiteSpace=wrap;rounded=0;" vertex="1" parent="1">
                    <mxGeometry x="160" y="290" width="40" height="20" as="geometry"/>
                </mxCell>
                <mxCell id="27" value="&lt;div style=&quot;background-color: rgb(40 , 42 , 54) ; font-family: &amp;#34;consolas&amp;#34; , &amp;#34;courier new&amp;#34; , monospace ; font-size: 14px ; line-height: 19px&quot;&gt;&lt;font color=&quot;#f6f6f4&quot;&gt;let output =&amp;nbsp;[&lt;/font&gt;&lt;font color=&quot;#f286c4&quot;&gt;4,8,15,16,23,42&lt;/font&gt;&lt;font color=&quot;#f6f6f4&quot;&gt;];&lt;/font&gt;&lt;/div&gt;" style="text;html=1;strokeColor=none;align=center;verticalAlign=middle;whiteSpace=wrap;rounded=0;fillColor=#2a2a2a;" vertex="1" parent="1">
                    <mxGeometry x="90" y="370" width="280" height="20" as="geometry"/>
                </mxCell>
            </root>
        </mxGraphModel>
    </diagram>
</mxfile>